<svg xmlns="http://www.w3.org/2000/svg" width="224" height="74" viewBox="0 0 224 74" fill="none"><path d="M120.329 15.1831C120.35 17.1835 120.106 19.1777 119.604 21.1118C119.175 22.7884 118.396 24.3509 117.32 25.6924C116.244 26.9868 114.875 27.9943 113.33 28.6276C111.47 29.3611 109.486 29.7126 107.492 29.662C105.69 29.6742 103.905 29.3031 102.251 28.5724C100.654 27.8708 99.2021 26.8679 97.9713 25.6166C96.7427 24.3634 95.7583 22.8844 95.0701 21.258C94.3524 19.5741 93.988 17.756 94.0003 15.9203C93.9919 14.0915 94.3562 12.2807 95.0701 10.6026C95.7558 8.96937 96.7404 7.48395 97.9713 6.22559C99.2026 4.97525 100.654 3.97283 102.251 3.27097C103.904 2.54025 105.69 2.16909 107.492 2.18125C108.95 2.16762 110.401 2.39219 111.79 2.84639C113.062 3.2645 114.262 3.88516 115.344 4.68532C116.391 5.46808 117.314 6.40861 118.083 7.47455C118.858 8.54919 119.491 9.7223 119.968 10.9641H115.108C114.754 10.2857 114.297 9.66862 113.753 9.13596C113.212 8.60816 112.605 8.15526 111.948 7.78893C111.272 7.41516 110.552 7.1299 109.806 6.93994C109.054 6.74415 108.28 6.6448 107.504 6.64419C106.282 6.63677 105.071 6.8883 103.95 7.3828C102.864 7.85683 101.874 8.53237 101.031 9.37499C100.191 10.2208 99.52 11.2241 99.0547 12.3296C98.5714 13.4592 98.3244 14.6789 98.3295 15.9111C98.3193 17.1443 98.5665 18.3656 99.0547 19.4941C99.5271 20.5829 100.198 21.5709 101.031 22.4059C101.876 23.2511 102.865 23.9329 103.95 24.418C105.069 24.9248 106.279 25.1949 107.504 25.2118C109.435 25.3776 111.365 24.893 112.999 23.8325C113.686 23.3406 114.262 22.706 114.69 21.9706C115.118 21.2351 115.388 20.4156 115.482 19.5661H107.903V15.1708L120.329 15.1831Z" fill="white"></path><path d="M122.398 3.00098H126.612V28.8543H122.398V3.00098Z" fill="white"></path><path d="M132.853 19.8816C132.871 20.6253 133.044 21.3565 133.36 22.0271C133.664 22.6774 134.081 23.2658 134.592 23.7635C135.108 24.2614 135.711 24.656 136.37 24.9267C137.049 25.2105 137.777 25.3548 138.511 25.3511C139.657 25.3839 140.784 25.0547 141.739 24.4086C142.627 23.7865 143.31 22.9042 143.695 21.8784H148.301C147.949 23.1541 147.397 24.3639 146.668 25.4615C146.041 26.3961 145.255 27.2093 144.348 27.863C143.492 28.4709 142.542 28.9269 141.537 29.2116C140.551 29.4915 139.533 29.6343 138.509 29.6362C137.182 29.6469 135.866 29.3766 134.647 28.8424C133.481 28.3341 132.421 27.6062 131.521 26.6969C130.624 25.7867 129.909 24.7085 129.414 23.5216C128.894 22.2783 128.631 20.9391 128.641 19.5876C128.631 18.2361 128.894 16.8969 129.414 15.6536C129.909 14.4663 130.624 13.3875 131.521 12.4767C132.421 11.5681 133.482 10.8403 134.646 10.3313C135.866 9.79735 137.182 9.52705 138.509 9.53748C139.919 9.51379 141.318 9.80351 142.607 10.3865C143.774 10.9233 144.823 11.6958 145.689 12.6573C146.543 13.6187 147.213 14.7341 147.666 15.9461C148.14 17.2024 148.392 18.5343 148.409 19.8801L132.853 19.8816ZM143.335 16.15C142.826 15.3448 142.112 14.6958 141.268 14.2728C140.425 13.8497 139.484 13.6685 138.547 13.7486C137.602 13.6844 136.657 13.8721 135.804 14.2932C134.952 14.7142 134.222 15.3542 133.687 16.15H143.335Z" fill="white"></path><path d="M154.159 19.8752C154.178 20.6189 154.352 21.35 154.668 22.0206C154.972 22.671 155.389 23.2595 155.9 23.757C156.416 24.255 157.019 24.6496 157.678 24.9202C158.356 25.2039 159.084 25.3481 159.817 25.3446C160.963 25.3776 162.091 25.0484 163.045 24.4022C163.934 23.7802 164.616 22.8978 165.001 21.872H169.608C169.255 23.1476 168.704 24.3574 167.975 25.455C167.348 26.3896 166.562 27.2028 165.655 27.8565C164.799 28.4644 163.849 28.9204 162.844 29.2051C161.857 29.485 160.838 29.6278 159.814 29.6295C158.487 29.6403 157.171 29.37 155.952 28.8357C154.786 28.3276 153.726 27.5996 152.826 26.6901C151.93 25.7797 151.214 24.7015 150.719 23.5147C150.199 22.2715 149.935 20.9323 149.946 19.5808C149.935 18.2293 150.199 16.8901 150.719 15.6468C151.214 14.4596 151.929 13.3809 152.826 12.4699C153.726 11.5611 154.786 10.8332 155.951 10.3245C157.171 9.79051 158.486 9.52021 159.814 9.53066C161.225 9.50679 162.623 9.79652 163.913 10.3796C165.081 10.9166 166.129 11.6892 166.995 12.6508C167.849 13.6123 168.52 14.7277 168.972 15.9397C169.446 17.196 169.697 18.5279 169.715 19.8736L154.159 19.8752ZM164.642 16.1435C164.133 15.3383 163.418 14.6893 162.575 14.2663C161.731 13.8432 160.79 13.662 159.854 13.7421C158.908 13.6779 157.963 13.8655 157.111 14.2866C156.258 14.7077 155.529 15.3477 154.993 16.1435H164.642Z" fill="white"></path><path d="M175.421 19.5828C175.417 20.3521 175.57 21.1139 175.873 21.8188C176.162 22.4997 176.574 23.1194 177.087 23.6456C177.604 24.1691 178.213 24.5887 178.882 24.8824C179.574 25.1903 180.321 25.347 181.076 25.3422C181.963 25.3545 182.841 25.1715 183.651 24.8059C184.408 24.4645 185.061 23.9215 185.541 23.234H190.255C189.836 24.2739 189.267 25.2448 188.568 26.1152C187.943 26.8912 187.203 27.5633 186.374 28.1074C185.59 28.618 184.734 29.004 183.836 29.2521C182.937 29.4988 182.01 29.6231 181.079 29.6215C179.752 29.6323 178.436 29.362 177.216 28.8277C176.051 28.3196 174.991 27.5917 174.091 26.6822C173.194 25.7714 172.479 24.6928 171.985 23.5057C171.464 22.2624 171.201 20.9232 171.211 19.5717C171.201 18.2202 171.464 16.881 171.985 15.6377C172.48 14.4506 173.195 13.3719 174.091 12.4608C174.992 11.5521 176.052 10.8243 177.217 10.3156C178.437 9.78164 179.752 9.51134 181.08 9.52178C181.993 9.52313 182.903 9.64103 183.788 9.87271C184.699 10.1085 185.569 10.4886 186.364 10.999C187.201 11.5405 187.952 12.207 188.594 12.976C189.311 13.8436 189.886 14.8225 190.299 15.8754H185.549C185.056 15.1691 184.378 14.6188 183.592 14.2878C182.797 13.9633 181.947 13.7999 181.09 13.8067C180.335 13.8026 179.588 13.9592 178.896 14.2665C178.227 14.5612 177.618 14.9806 177.101 15.5031C176.588 16.0301 176.176 16.6501 175.887 17.3313C175.577 18.0399 175.419 18.8071 175.422 19.5825L175.421 19.5828Z" fill="white"></path><path d="M204.408 10.3789H208.622V20.4253C208.63 21.5434 208.407 22.6508 207.969 23.6758C207.545 24.6688 206.949 25.5762 206.209 26.3547C205.466 27.1343 204.578 27.7558 203.597 28.1828C202.584 28.628 201.491 28.8545 200.388 28.848C199.29 28.8559 198.202 28.6293 197.196 28.1828C196.214 27.7471 195.322 27.1269 194.566 26.3547C193.805 25.58 193.196 24.6653 192.77 23.6591C192.333 22.6272 192.111 21.5141 192.117 20.3902V10.3789H196.331V20.4253C196.327 20.9726 196.439 21.5144 196.658 22.0142C196.868 22.4953 197.164 22.9331 197.529 23.3061C197.897 23.6795 198.335 23.9744 198.817 24.1735C199.317 24.3846 199.853 24.492 200.394 24.4892C200.93 24.4931 201.461 24.3857 201.954 24.1735C202.429 23.9713 202.86 23.6766 203.224 23.3061C203.589 22.9331 203.885 22.4953 204.095 22.0142C204.314 21.5144 204.426 20.9726 204.422 20.4253L204.408 10.3789Z" fill="white"></path><path d="M219.657 23.6811C219.694 23.3719 219.644 23.0584 219.512 22.7773C219.38 22.4961 219.173 22.259 218.914 22.0935C218.189 21.6927 217.415 21.3942 216.611 21.2063C215.935 21.0348 215.269 20.8251 214.616 20.578C213.976 20.3384 213.371 20.0087 212.821 19.5987C212.276 19.1891 211.816 18.6747 211.467 18.0846C211.078 17.4007 210.842 16.6376 210.777 15.8501C210.698 15.0073 210.823 14.1577 211.14 13.3751C211.452 12.6168 211.922 11.937 212.518 11.3829C213.139 10.8064 213.858 10.35 214.64 10.0359C215.465 9.70006 216.345 9.5304 217.233 9.53628C217.977 9.53105 218.715 9.66884 219.409 9.94241C220.061 10.1996 220.672 10.5544 221.222 10.9952C221.731 11.4009 222.172 11.8873 222.528 12.4357C222.845 12.9147 223.078 13.4456 223.217 14.005H218.974C218.732 13.5371 218.104 13.3031 217.088 13.3031C216.5 13.2979 215.926 13.4925 215.457 13.8564C215.221 14.035 215.046 14.2839 214.955 14.5685C214.864 14.8532 214.862 15.1596 214.95 15.4453C215.051 15.8642 215.407 16.1967 216.02 16.443C216.633 16.6892 217.558 17.0218 218.795 17.4406C219.495 17.6761 220.174 17.9725 220.825 18.3265C221.436 18.6561 221.995 19.0794 222.48 19.5816C222.962 20.0913 223.338 20.6943 223.586 21.3548C223.865 22.1228 224.001 22.9373 223.985 23.7561C224.001 24.6211 223.808 25.4768 223.424 26.2481C223.056 26.9629 222.543 27.5897 221.919 28.087C221.268 28.6043 220.531 28.9988 219.743 29.2517C218.911 29.5243 218.042 29.6614 217.168 29.6579C216.345 29.6525 215.53 29.4968 214.761 29.1981C213.967 28.8995 213.231 28.4618 212.585 27.9047C211.934 27.3381 211.399 26.6479 211.008 25.8725C210.593 25.0571 210.381 24.1503 210.391 23.232H214.604C214.627 23.8929 214.896 24.5202 215.357 24.9866C215.601 25.2401 215.894 25.4385 216.218 25.5689C216.542 25.6994 216.89 25.7589 217.238 25.7437C217.559 25.7595 217.88 25.7087 218.181 25.5944C218.483 25.4801 218.758 25.3046 218.991 25.0786C219.378 24.7151 219.616 24.2158 219.657 23.681L219.657 23.6811Z" fill="white"></path><path d="M62.1225 12.6071C63.7361 12.6121 65.3326 12.9434 66.8195 13.5817C68.3064 14.2199 69.6541 15.1524 70.7844 16.3252C71.9147 17.4979 72.8051 18.8875 73.4041 20.4134C74.003 21.9393 74.2986 23.5711 74.2736 25.2142C74.2736 28.5578 72.9693 31.7644 70.6478 34.1287C68.3262 36.493 65.1775 37.8212 61.8944 37.8212C58.6113 37.8212 55.4626 36.493 53.1411 34.1287C50.8196 31.7644 49.5154 28.5578 49.5154 25.2142C49.5154 18.5269 46.907 12.1136 42.2639 7.38506C37.6209 2.65648 31.3236 0 24.7574 0C18.1912 0.00018056 11.894 2.65679 7.2511 7.38542C2.60821 12.114 -8.86472e-05 18.5273 2.25966e-09 25.2145C4.43213e-05 31.9015 2.60838 38.3147 7.25122 43.0432C11.8941 47.7717 18.1911 50.4283 24.7572 50.4285V37.8214C21.4741 37.8214 18.3255 36.4931 16.004 34.1288C13.6825 31.7645 12.3783 28.5579 12.3783 25.2143C12.3784 21.8707 13.6826 18.664 16.0042 16.2998C18.3257 13.9355 21.4744 12.6072 24.7575 12.6072C28.0406 12.6073 31.1892 13.9355 33.5107 16.2998C35.8322 18.664 37.1365 21.8706 37.1365 25.2142C37.1365 28.5253 37.7769 31.8041 39.0211 34.8632C40.2653 37.9224 42.0889 40.702 44.3879 43.0434C46.6869 45.3847 49.4163 47.242 52.42 48.5092C55.4238 49.7763 58.6433 50.4285 61.8946 50.4285C65.1458 50.4285 68.3653 49.7763 71.3691 48.5092C74.3728 47.242 77.1021 45.3848 79.4011 43.0434C81.7001 40.7021 83.5238 37.9225 84.768 34.8634C86.0122 31.8042 86.6526 28.5255 86.6526 25.2143C86.6787 21.9155 86.0638 18.6439 84.8432 15.5881C83.6227 12.5323 81.8206 9.75252 79.5408 7.40892C77.261 5.06533 74.5485 3.20418 71.5595 1.93264C68.5705 0.661096 65.364 0.00427665 62.1247 0" fill="url(#paint0_linear_7108_5266)"></path><path d="M62.1158 12.6229C65.5366 12.6229 68.3097 9.79872 68.3097 6.31488C68.3097 2.83105 65.5366 0.00683594 62.1158 0.00683594C58.695 0.00683594 55.9219 2.83105 55.9219 6.31488C55.9219 9.79872 58.695 12.6229 62.1158 12.6229Z" fill="url(#paint1_linear_7108_5266)"></path><path d="M24.7564 50.4257C28.1773 50.4257 30.9504 47.6015 30.9504 44.1176C30.9504 40.6338 28.1773 37.8096 24.7564 37.8096C21.3356 37.8096 18.5625 40.6338 18.5625 44.1176C18.5625 47.6015 21.3356 50.4257 24.7564 50.4257Z" fill="url(#paint2_linear_7108_5266)"></path><path d="M101.847 51.691C101.746 51.6931 101.646 51.6767 101.552 51.6429C101.458 51.609 101.373 51.5584 101.301 51.494C101.23 51.4295 101.173 51.3527 101.135 51.268C101.097 51.1833 101.078 51.0926 101.08 51.0012V42.2443H97.6397C97.5458 42.2464 97.4525 42.2312 97.3653 42.1997C97.2782 42.1682 97.199 42.1209 97.1326 42.0609C97.0662 42.0008 97.014 41.9291 96.9792 41.8503C96.9444 41.7714 96.9276 41.6869 96.9299 41.602C96.9278 41.5161 96.9447 41.4306 96.9795 41.3507C97.0143 41.2707 97.0663 41.1978 97.1326 41.1362C97.1976 41.0741 97.2764 41.025 97.3638 40.9922C97.4511 40.9594 97.5451 40.9436 97.6397 40.9459H106.055C106.15 40.9451 106.245 40.9617 106.334 40.9944C106.422 41.0272 106.502 41.0756 106.57 41.1368C106.638 41.198 106.691 41.2708 106.727 41.3509C106.764 41.4309 106.782 41.5168 106.781 41.6033C106.783 41.6888 106.766 41.7739 106.73 41.8529C106.693 41.9319 106.639 42.0032 106.571 42.062C106.502 42.1221 106.421 42.1693 106.333 42.2008C106.244 42.2323 106.15 42.2474 106.054 42.2454H102.625V51.0036C102.627 51.0951 102.607 51.186 102.568 51.2703C102.528 51.3546 102.47 51.4304 102.396 51.4929C102.323 51.5568 102.238 51.6072 102.144 51.6411C102.05 51.6749 101.949 51.6917 101.848 51.6903L101.847 51.691ZM114.892 51.6144C114.791 51.6158 114.692 51.5988 114.599 51.5647C114.506 51.5306 114.422 51.48 114.351 51.4158C114.28 51.3517 114.224 51.2753 114.186 51.1913C114.149 51.1072 114.13 51.0171 114.131 50.9264V41.6438C114.13 41.5518 114.148 41.4605 114.186 41.375C114.224 41.2896 114.28 41.2118 114.351 41.1461C114.42 41.0794 114.504 41.0267 114.597 40.9913C114.69 40.9558 114.791 40.9385 114.892 40.9405H121.667C121.763 40.9399 121.858 40.9566 121.946 40.9894C122.035 41.0223 122.115 41.0707 122.182 41.1319C122.25 41.1931 122.304 41.2658 122.34 41.3458C122.376 41.4259 122.394 41.5116 122.394 41.5981C122.396 41.6835 122.378 41.7684 122.342 41.8473C122.306 41.9261 122.252 41.9972 122.183 42.0559C122.115 42.1159 122.034 42.1629 121.946 42.1944C121.858 42.2259 121.763 42.2412 121.669 42.2394H115.669V45.6196H121.059C121.155 45.619 121.25 45.6357 121.338 45.6685C121.427 45.7013 121.507 45.7498 121.575 45.8109C121.642 45.8721 121.696 45.9449 121.732 46.0249C121.768 46.1049 121.787 46.1907 121.786 46.2772C121.788 46.3629 121.77 46.448 121.734 46.527C121.697 46.606 121.643 46.6772 121.574 46.7359C121.506 46.796 121.425 46.8432 121.336 46.8747C121.248 46.9062 121.153 46.9214 121.058 46.9194H115.669V50.314H121.668C121.763 50.3135 121.858 50.3301 121.946 50.363C122.035 50.3959 122.115 50.4443 122.183 50.5055C122.25 50.5666 122.304 50.6394 122.34 50.7194C122.376 50.7994 122.395 50.8852 122.394 50.9717C122.396 51.0573 122.379 51.1424 122.342 51.2214C122.305 51.3005 122.251 51.3717 122.182 51.4304C122.114 51.4903 122.034 51.5374 121.945 51.5689C121.857 51.6004 121.762 51.6156 121.668 51.6138L114.892 51.6144ZM135.489 51.7673C134.431 51.7834 133.386 51.5547 132.452 51.1027C131.56 50.6623 130.827 49.9987 130.34 49.1912C129.809 48.2946 129.545 47.2887 129.572 46.2719C129.545 45.255 129.809 44.2491 130.34 43.3525C130.829 42.5492 131.562 41.8898 132.452 41.4524C133.385 41.0009 134.429 40.7722 135.486 40.7879C136.18 40.779 136.872 40.8614 137.54 41.0325C138.167 41.2051 138.771 41.441 139.34 41.7358C139.458 41.7898 139.556 41.8736 139.622 41.9769C139.688 42.0802 139.719 42.1987 139.712 42.3178C139.712 42.3933 139.696 42.468 139.664 42.5377C139.632 42.6073 139.586 42.6706 139.526 42.7237C139.463 42.7826 139.387 42.8288 139.302 42.8592C139.218 42.8896 139.127 42.9036 139.036 42.9002C138.93 42.9022 138.825 42.8812 138.729 42.839C138.266 42.6165 137.779 42.4372 137.276 42.3038C136.742 42.1745 136.19 42.1128 135.637 42.1204C134.773 42.0972 133.919 42.2849 133.163 42.664C132.499 43.0093 131.964 43.5256 131.627 44.1472C131.274 44.8125 131.098 45.5433 131.112 46.2811C131.098 47.0202 131.275 47.7519 131.63 48.4179C131.967 49.0394 132.502 49.5558 133.166 49.901C133.922 50.2801 134.777 50.4679 135.64 50.4447C136.193 50.4523 136.745 50.3906 137.279 50.2612C137.782 50.1279 138.269 49.9485 138.732 49.726C138.828 49.6839 138.933 49.6629 139.04 49.6648C139.13 49.6612 139.219 49.6742 139.304 49.7031C139.388 49.7321 139.465 49.7762 139.529 49.8329C139.591 49.8869 139.639 49.9519 139.671 50.0237C139.703 50.0955 139.718 50.1726 139.715 50.25C139.722 50.3692 139.691 50.4877 139.625 50.591C139.559 50.6943 139.461 50.778 139.343 50.832C138.774 51.1269 138.17 51.3628 137.543 51.5353C136.874 51.702 136.183 51.78 135.489 51.7668V51.7673ZM148.28 51.6908C148.179 51.6921 148.08 51.6752 147.987 51.641C147.894 51.6069 147.81 51.5563 147.739 51.4921C147.668 51.428 147.612 51.3516 147.574 51.2676C147.536 51.1835 147.518 51.0934 147.519 51.0027V41.5673C147.518 41.4753 147.536 41.384 147.574 41.2985C147.612 41.2131 147.668 41.1353 147.739 41.0696C147.808 41.0029 147.892 40.9502 147.985 40.9147C148.078 40.8793 148.178 40.862 148.28 40.864C148.485 40.8644 148.683 40.9386 148.829 41.0704C148.974 41.2022 149.056 41.3809 149.057 41.5673V45.6362H155.462V41.5673C155.46 41.4753 155.479 41.384 155.516 41.2985C155.554 41.2131 155.61 41.1353 155.681 41.0696C155.75 41.0029 155.834 40.9501 155.927 40.9146C156.021 40.8792 156.121 40.8618 156.222 40.8637C156.428 40.8641 156.625 40.9384 156.771 41.0702C156.917 41.202 156.999 41.3807 156.999 41.5671V51.0012C157.001 51.0926 156.982 51.1834 156.943 51.2677C156.904 51.352 156.846 51.4279 156.772 51.4905C156.7 51.5547 156.614 51.6053 156.52 51.6394C156.426 51.6735 156.325 51.6904 156.224 51.6892C156.123 51.6915 156.023 51.6753 155.929 51.6416C155.835 51.608 155.75 51.5575 155.678 51.4932C155.606 51.429 155.55 51.3523 155.512 51.2677C155.473 51.1832 155.454 51.0925 155.456 51.0012V46.9347H149.058V51.0012C149.06 51.0927 149.04 51.1836 149.001 51.2679C148.961 51.3522 148.903 51.4281 148.829 51.4905C148.756 51.5554 148.669 51.6064 148.574 51.6406C148.478 51.6747 148.377 51.6912 148.274 51.6892L148.28 51.6908ZM166.833 51.6142C166.551 51.6135 166.28 51.5118 166.081 51.3313C165.881 51.1508 165.769 50.9062 165.768 50.6509V41.5673C165.767 41.4753 165.785 41.3839 165.823 41.2985C165.861 41.2131 165.917 41.1353 165.988 41.0696C166.057 41.0029 166.141 40.9502 166.234 40.9147C166.327 40.8793 166.427 40.862 166.528 40.864C166.734 40.8644 166.932 40.9386 167.077 41.0704C167.223 41.2022 167.305 41.3809 167.306 41.5673V50.2237H172.835C173.041 50.2241 173.239 50.2984 173.385 50.4302C173.53 50.562 173.612 50.7406 173.613 50.9271C173.615 51.0186 173.595 51.1095 173.556 51.1938C173.516 51.2781 173.458 51.3539 173.384 51.4164C173.311 51.4805 173.226 51.5311 173.132 51.5652C173.038 51.5993 172.937 51.6163 172.836 51.6151L166.833 51.6142ZM180.621 51.6908C180.519 51.6941 180.418 51.6781 180.323 51.6439C180.229 51.6096 180.144 51.5579 180.073 51.492C180.003 51.4273 179.949 51.3507 179.912 51.2667C179.876 51.1827 179.858 51.0929 179.861 51.0027C179.867 50.8968 179.896 50.793 179.945 50.6969L184.254 41.4914C184.338 41.3153 184.469 41.1606 184.635 41.0409C184.806 40.9212 185.018 40.8588 185.234 40.8644H185.403C185.619 40.8588 185.831 40.9212 186.002 41.0409C186.168 41.1606 186.299 41.3153 186.383 41.4914L190.692 50.6969C190.741 50.793 190.77 50.8968 190.776 51.0027C190.779 51.0929 190.761 51.1827 190.725 51.2667C190.689 51.3507 190.634 51.4273 190.564 51.492C190.493 51.5582 190.408 51.61 190.313 51.6443C190.218 51.6785 190.116 51.6943 190.014 51.6908C189.862 51.6919 189.712 51.6518 189.584 51.5754C189.454 51.4983 189.351 51.3887 189.288 51.2599L188.19 48.8744H182.445L181.347 51.2599C181.284 51.3883 181.181 51.4974 181.051 51.5741C180.923 51.6508 180.774 51.6915 180.621 51.691L180.621 51.6908ZM183.038 47.6074H187.599L185.319 42.6379L183.038 47.6074ZM199.513 51.6138C199.413 51.6151 199.313 51.5982 199.22 51.5641C199.127 51.53 199.043 51.4793 198.972 51.4152C198.901 51.351 198.845 51.2747 198.808 51.1906C198.77 51.1065 198.751 51.0165 198.753 50.9258V41.6438C198.75 41.5522 198.768 41.461 198.805 41.3756C198.842 41.2902 198.897 41.2122 198.967 41.1461C199.036 41.0794 199.12 41.0267 199.213 40.9913C199.306 40.9558 199.407 40.9385 199.508 40.9405H203.501C204.502 40.8829 205.493 41.1483 206.297 41.6895C206.622 41.9351 206.88 42.2447 207.051 42.5946C207.223 42.9446 207.303 43.3254 207.286 43.7079C207.309 44.2318 207.148 44.7487 206.826 45.1842C206.525 45.5704 206.113 45.8746 205.635 46.0641C206.271 46.2354 206.846 46.5574 207.3 46.9967C207.74 47.4405 207.974 48.0215 207.951 48.6177C207.974 49.0328 207.892 49.4472 207.71 49.8289C207.528 50.2107 207.252 50.5496 206.903 50.8197C205.937 51.422 204.771 51.7025 203.602 51.6136L199.513 51.6138ZM203.095 45.5584C203.836 45.6218 204.579 45.4604 205.207 45.0997C205.412 44.9428 205.574 44.7452 205.68 44.5225C205.787 44.2997 205.835 44.0577 205.822 43.8152C205.828 43.5901 205.771 43.3671 205.658 43.1668C205.544 42.9664 205.376 42.7951 205.171 42.6683C204.642 42.3586 204.018 42.2087 203.389 42.2402H200.29V45.5584H203.095ZM203.45 50.314C204.258 50.3767 205.067 50.2168 205.773 49.8554C205.996 49.7063 206.175 49.5097 206.295 49.283C206.414 49.0563 206.47 48.8065 206.458 48.5556C206.458 47.3935 205.461 46.8125 203.467 46.8125H200.29V50.314H203.45ZM219.67 51.7668C218.288 51.7758 216.919 51.5259 215.649 51.0329C215.512 50.9803 215.395 50.8928 215.312 50.7811C215.214 50.6586 215.167 50.5094 215.178 50.3588C215.188 50.2082 215.256 50.0656 215.37 49.9554C215.433 49.8927 215.511 49.8432 215.597 49.8103C215.683 49.7774 215.777 49.7619 215.87 49.7648C215.981 49.7644 216.09 49.7853 216.191 49.826C217.239 50.2462 218.374 50.46 219.52 50.4531C221.491 50.4531 222.477 49.8669 222.477 48.6946C222.48 48.5496 222.447 48.4058 222.381 48.2736C222.316 48.1414 222.218 48.0241 222.096 47.9301C221.822 47.7137 221.504 47.5484 221.159 47.4436C220.787 47.3259 220.258 47.1869 219.571 47.0265C218.82 46.8581 218.081 46.6511 217.357 46.4066C216.803 46.2137 216.306 45.9078 215.904 45.5127C215.48 45.0745 215.259 44.5045 215.29 43.9224C215.283 43.361 215.459 42.8103 215.797 42.339C216.166 41.8408 216.684 41.4483 217.291 41.2073C218.039 40.9117 218.85 40.7693 219.666 40.7902C220.811 40.7759 221.95 40.9468 223.028 41.2948C223.173 41.3326 223.298 41.4139 223.384 41.5252C223.47 41.6365 223.512 41.7711 223.501 41.9066C223.501 42.0699 223.435 42.2276 223.316 42.3499C223.256 42.4145 223.181 42.4659 223.096 42.5003C223.011 42.5347 222.919 42.5513 222.826 42.5487C222.732 42.5432 222.641 42.5224 222.555 42.4875C221.681 42.2114 220.761 42.0704 219.835 42.0704C219.079 42.0412 218.328 42.1998 217.664 42.5291C217.408 42.6528 217.194 42.8381 217.046 43.0647C216.898 43.2914 216.823 43.5505 216.827 43.8135C216.82 43.9796 216.852 44.1451 216.92 44.2993C216.988 44.4536 217.092 44.593 217.224 44.7087C217.51 44.9497 217.85 45.1322 218.221 45.2439C218.758 45.4058 219.305 45.5413 219.858 45.6498C220.588 45.8006 221.307 45.9951 222.009 46.2318C222.551 46.4233 223.032 46.733 223.41 47.1334C223.821 47.6008 224.029 48.1883 223.994 48.7849C224 49.3362 223.811 49.8747 223.453 50.3209C223.064 50.7953 222.537 51.1633 221.932 51.3845C221.215 51.65 220.446 51.7802 219.671 51.7668H219.67Z" fill="white"></path><path d="M5.84724 63.0556H1.21741V65.638H5.1955V66.7201H1.21741V71.1286H0V61.9735H5.84724V63.0556Z" fill="white"></path><path d="M12.6967 67.6977C12.6967 68.8168 12.4098 69.7001 11.8359 70.3478C11.262 70.9954 10.4935 71.3192 9.5302 71.3192C8.55874 71.3192 7.78607 70.9954 7.21221 70.3478C6.64245 69.7001 6.35757 68.8168 6.35757 67.6977C6.35757 66.5787 6.64245 65.6954 7.21221 65.0477C7.78607 64.396 8.55874 64.0701 9.5302 64.0701C10.4935 64.0701 11.262 64.396 11.8359 65.0477C12.4098 65.6954 12.6967 66.5787 12.6967 67.6977ZM11.5039 67.6977C11.5039 66.8083 11.3297 66.1483 10.9813 65.7179C10.6328 65.2834 10.1492 65.0662 9.5302 65.0662C8.90305 65.0662 8.41527 65.2834 8.06686 65.7179C7.72254 66.1483 7.55038 66.8083 7.55038 67.6977C7.55038 68.5585 7.72459 69.2123 8.073 69.6591C8.42142 70.1018 8.90715 70.3232 9.5302 70.3232C10.1451 70.3232 10.6267 70.1039 10.9751 69.6653C11.3276 69.2226 11.5039 68.5667 11.5039 67.6977Z" fill="white"></path><path d="M18.7776 65.5212H18.7161C18.5439 65.4802 18.3759 65.4515 18.2119 65.4351C18.052 65.4146 17.8614 65.4043 17.6401 65.4043C17.2835 65.4043 16.9392 65.4843 16.6071 65.6441C16.2751 65.7999 15.9554 66.0028 15.648 66.2528V71.1286H14.4921V64.2607H15.648V65.2752C16.1071 64.9063 16.5108 64.646 16.8592 64.4944C17.2118 64.3386 17.5704 64.2607 17.9352 64.2607C18.1361 64.2607 18.2816 64.2669 18.3718 64.2792C18.462 64.2874 18.5972 64.3058 18.7776 64.3345V65.5212Z" fill="white"></path><path d="M28.5045 64.2607L26.7153 71.1286H25.6455L23.8808 65.8347L22.1285 71.1286H21.0648L19.2572 64.2607H20.4623L21.7227 69.5792L23.4382 64.2607H24.3912L26.1496 69.5792L27.3425 64.2607H28.5045Z" fill="white"></path><path d="M35.3847 71.1286H34.235V70.3969C34.1325 70.4666 33.9931 70.565 33.8169 70.6921C33.6447 70.815 33.4766 70.9134 33.3127 70.9872C33.12 71.0815 32.8987 71.1594 32.6486 71.2208C32.3986 71.2864 32.1055 71.3192 31.7694 71.3192C31.1504 71.3192 30.6258 71.1143 30.1954 70.7044C29.765 70.2945 29.5498 69.7718 29.5498 69.1365C29.5498 68.6159 29.6605 68.1958 29.8818 67.8761C30.1072 67.5522 30.427 67.2981 30.841 67.1136C31.2591 66.9292 31.7612 66.8042 32.3474 66.7386C32.9335 66.673 33.5627 66.6238 34.235 66.591V66.4127C34.235 66.1504 34.1878 65.9331 34.0935 65.761C34.0034 65.5888 33.8722 65.4535 33.7 65.3552C33.5361 65.2609 33.3393 65.1973 33.1098 65.1646C32.8802 65.1318 32.6404 65.1154 32.3904 65.1154C32.0871 65.1154 31.7489 65.1564 31.3759 65.2383C31.0029 65.3162 30.6176 65.431 30.22 65.5827H30.1585V64.4083C30.3839 64.3468 30.7098 64.2792 31.1361 64.2054C31.5624 64.1316 31.9825 64.0947 32.3965 64.0947C32.8802 64.0947 33.3004 64.1357 33.657 64.2177C34.0177 64.2956 34.3292 64.4308 34.5916 64.6235C34.8498 64.812 35.0466 65.0559 35.1818 65.3552C35.3171 65.6544 35.3847 66.0253 35.3847 66.468V71.1286ZM34.235 69.4378V67.5256C33.8824 67.5461 33.4664 67.5768 32.9868 67.6178C32.5113 67.6588 32.1342 67.7182 31.8555 67.7961C31.5235 67.8904 31.255 68.038 31.05 68.2388C30.8451 68.4356 30.7426 68.7082 30.7426 69.0566C30.7426 69.4501 30.8615 69.7473 31.0992 69.9481C31.3369 70.1449 31.6997 70.2432 32.1875 70.2432C32.5933 70.2432 32.9643 70.1653 33.3004 70.0096C33.6365 69.8497 33.948 69.6591 34.235 69.4378Z" fill="white"></path><path d="M41.896 65.5212H41.8345C41.6624 65.4802 41.4943 65.4515 41.3303 65.4351C41.1705 65.4146 40.9799 65.4043 40.7585 65.4043C40.4019 65.4043 40.0576 65.4843 39.7256 65.6441C39.3936 65.7999 39.0738 66.0028 38.7664 66.2528V71.1286H37.6105V64.2607H38.7664V65.2752C39.2255 64.9063 39.6292 64.646 39.9777 64.4944C40.3302 64.3386 40.6888 64.2607 41.0537 64.2607C41.2545 64.2607 41.4 64.2669 41.4902 64.2792C41.5804 64.2874 41.7156 64.3058 41.896 64.3345V65.5212Z" fill="white"></path><path d="M48.5548 71.1286H47.3989V70.4092C47.0669 70.6962 46.7205 70.9196 46.3598 71.0794C45.9991 71.2393 45.6077 71.3192 45.1855 71.3192C44.3657 71.3192 43.7139 71.0036 43.2302 70.3724C42.7506 69.7411 42.5109 68.866 42.5109 67.7469C42.5109 67.1649 42.5928 66.6463 42.7568 66.1914C42.9249 65.7364 43.1503 65.349 43.4331 65.0293C43.7119 64.7178 44.0357 64.48 44.4046 64.3161C44.7776 64.1521 45.1629 64.0701 45.5605 64.0701C45.9212 64.0701 46.241 64.1091 46.5197 64.1869C46.7984 64.2607 47.0915 64.3775 47.3989 64.5374V61.5615H48.5548V71.1286ZM47.3989 69.4378V65.4966C47.0874 65.3572 46.8087 65.2609 46.5627 65.2076C46.3168 65.1543 46.0483 65.1277 45.7573 65.1277C45.1096 65.1277 44.6054 65.3531 44.2447 65.804C43.884 66.2549 43.7037 66.8943 43.7037 67.7223C43.7037 68.538 43.843 69.159 44.1218 69.5853C44.4005 70.0075 44.8473 70.2186 45.4621 70.2186C45.7901 70.2186 46.1221 70.1469 46.4582 70.0034C46.7943 69.8559 47.1079 69.6673 47.3989 69.4378Z" fill="white"></path><path d="M61.8787 63.0556H58.6077V71.1286H57.3903V63.0556H54.1193V61.9735H61.8787V63.0556Z" fill="white"></path><path d="M68.7589 71.1286H67.603V67.2182C67.603 66.9025 67.5845 66.6074 67.5476 66.3328C67.5107 66.054 67.4431 65.8368 67.3447 65.681C67.2422 65.5089 67.0947 65.3818 66.902 65.2998C66.7094 65.2137 66.4593 65.1707 66.1519 65.1707C65.8363 65.1707 65.5063 65.2486 65.162 65.4043C64.8177 65.5601 64.4877 65.7589 64.1721 66.0008V71.1286H63.0162V61.5615H64.1721V65.0231C64.5328 64.7239 64.9058 64.4903 65.2911 64.3222C65.6764 64.1541 66.072 64.0701 66.4778 64.0701C67.2197 64.0701 67.7854 64.2935 68.1748 64.7403C68.5642 65.1871 68.7589 65.8306 68.7589 66.6709V71.1286Z" fill="white"></path><path d="M72.2266 63.111H70.9232V61.912H72.2266V63.111ZM72.1529 71.1286H70.9969V64.2607H72.1529V71.1286Z" fill="white"></path><path d="M80.1828 71.1286H79.0269V67.2182C79.0269 66.9025 79.0085 66.6074 78.9716 66.3328C78.9347 66.054 78.867 65.8368 78.7687 65.681C78.6662 65.5089 78.5186 65.3818 78.326 65.2998C78.1333 65.2137 77.8833 65.1707 77.5759 65.1707C77.2602 65.1707 76.9303 65.2486 76.5859 65.4043C76.2416 65.5601 75.9117 65.7589 75.596 66.0008V71.1286H74.4401V64.2607H75.596V65.0231C75.9567 64.7239 76.3298 64.4903 76.7151 64.3222C77.1004 64.1541 77.4959 64.0701 77.9017 64.0701C78.6436 64.0701 79.2093 64.2935 79.5987 64.7403C79.9881 65.1871 80.1828 65.8306 80.1828 66.6709V71.1286Z" fill="white"></path><path d="M88.6432 71.1286H87.1184L84.3638 68.122L83.6137 68.8352V71.1286H82.4578V61.5615H83.6137V67.6977L86.9523 64.2607H88.4095L85.2185 67.4334L88.6432 71.1286Z" fill="white"></path><path d="M91.1026 63.111H89.7991V61.912H91.1026V63.111ZM91.0288 71.1286H89.8729V64.2607H91.0288V71.1286Z" fill="white"></path><path d="M99.0588 71.1286H97.9029V67.2182C97.9029 66.9025 97.8844 66.6074 97.8475 66.3328C97.8106 66.054 97.743 65.8368 97.6446 65.681C97.5421 65.5089 97.3946 65.3818 97.2019 65.2998C97.0093 65.2137 96.7592 65.1707 96.4518 65.1707C96.1362 65.1707 95.8062 65.2486 95.4619 65.4043C95.1176 65.5601 94.7876 65.7589 94.472 66.0008V71.1286H93.3161V64.2607H94.472V65.0231C94.8327 64.7239 95.2057 64.4903 95.591 64.3222C95.9763 64.1541 96.3719 64.0701 96.7777 64.0701C97.5196 64.0701 98.0853 64.2935 98.4747 64.7403C98.8641 65.1871 99.0588 65.8306 99.0588 66.6709V71.1286Z" fill="white"></path><path d="M106.855 70.3478C106.855 71.5119 106.591 72.3665 106.062 72.9117C105.533 73.4569 104.72 73.7294 103.621 73.7294C103.256 73.7294 102.9 73.7028 102.551 73.6495C102.207 73.6003 101.867 73.5286 101.53 73.4343V72.2538H101.592C101.781 72.3276 102.08 72.4178 102.49 72.5243C102.9 72.635 103.309 72.6903 103.719 72.6903C104.113 72.6903 104.439 72.6432 104.697 72.5489C104.955 72.4546 105.156 72.3235 105.3 72.1554C105.443 71.9956 105.545 71.8029 105.607 71.5775C105.668 71.352 105.699 71.0999 105.699 70.8212V70.194C105.351 70.4728 105.017 70.6818 104.697 70.8212C104.381 70.9565 103.978 71.0241 103.486 71.0241C102.666 71.0241 102.014 70.729 101.53 70.1387C101.051 69.5443 100.811 68.7082 100.811 67.6301C100.811 67.0399 100.893 66.5316 101.057 66.1053C101.225 65.6749 101.453 65.3039 101.74 64.9924C102.006 64.7014 102.33 64.4759 102.711 64.3161C103.092 64.1521 103.471 64.0701 103.848 64.0701C104.246 64.0701 104.578 64.1111 104.845 64.1931C105.115 64.271 105.4 64.3919 105.699 64.5559L105.773 64.2607H106.855V70.3478ZM105.699 69.241V65.4966C105.392 65.3572 105.105 65.2588 104.838 65.2014C104.576 65.14 104.314 65.1092 104.051 65.1092C103.416 65.1092 102.916 65.3224 102.551 65.7487C102.186 66.175 102.004 66.7939 102.004 67.6055C102.004 68.3761 102.139 68.9602 102.41 69.3578C102.68 69.7554 103.129 69.9543 103.756 69.9543C104.092 69.9543 104.428 69.8907 104.765 69.7636C105.105 69.6325 105.416 69.4583 105.699 69.241Z" fill="white"></path><path d="M121.384 66.5603C121.384 67.3924 121.202 68.1466 120.837 68.8229C120.476 69.4993 119.994 70.0239 119.392 70.3969C118.974 70.6552 118.507 70.8417 117.99 70.9565C117.478 71.0712 116.801 71.1286 115.961 71.1286H113.649V61.9735H115.936C116.83 61.9735 117.539 62.0391 118.064 62.1702C118.593 62.2973 119.039 62.4736 119.404 62.699C120.027 63.0884 120.513 63.6069 120.861 64.2546C121.21 64.9022 121.384 65.6708 121.384 66.5603ZM120.111 66.5418C120.111 65.8245 119.986 65.2199 119.736 64.728C119.486 64.2361 119.113 63.8488 118.617 63.5659C118.257 63.361 117.873 63.2196 117.467 63.1417C117.062 63.0597 116.576 63.0187 116.01 63.0187H114.867V70.0834H116.01C116.596 70.0834 117.107 70.0403 117.541 69.9543C117.98 69.8682 118.382 69.7083 118.746 69.4747C119.201 69.1836 119.542 68.8004 119.767 68.3249C119.997 67.8494 120.111 67.2551 120.111 66.5418Z" fill="white"></path><path d="M124.501 63.111H123.198V61.912H124.501V63.111ZM124.428 71.1286H123.272V64.2607H124.428V71.1286Z" fill="white"></path><path d="M132.285 70.3478C132.285 71.5119 132.021 72.3665 131.492 72.9117C130.963 73.4569 130.15 73.7294 129.051 73.7294C128.686 73.7294 128.33 73.7028 127.981 73.6495C127.637 73.6003 127.297 73.5286 126.961 73.4343V72.2538H127.022C127.211 72.3276 127.51 72.4178 127.92 72.5243C128.33 72.635 128.74 72.6903 129.15 72.6903C129.543 72.6903 129.869 72.6432 130.127 72.5489C130.385 72.4546 130.586 72.3235 130.73 72.1554C130.873 71.9956 130.976 71.8029 131.037 71.5775C131.099 71.352 131.129 71.0999 131.129 70.8212V70.194C130.781 70.4728 130.447 70.6818 130.127 70.8212C129.812 70.9565 129.408 71.0241 128.916 71.0241C128.096 71.0241 127.444 70.729 126.961 70.1387C126.481 69.5443 126.241 68.7082 126.241 67.6301C126.241 67.0399 126.323 66.5316 126.487 66.1053C126.655 65.6749 126.883 65.3039 127.17 64.9924C127.436 64.7014 127.76 64.4759 128.141 64.3161C128.522 64.1521 128.902 64.0701 129.279 64.0701C129.676 64.0701 130.008 64.1111 130.275 64.1931C130.545 64.271 130.83 64.3919 131.129 64.5559L131.203 64.2607H132.285V70.3478ZM131.129 69.241V65.4966C130.822 65.3572 130.535 65.2588 130.269 65.2014C130.006 65.14 129.744 65.1092 129.482 65.1092C128.846 65.1092 128.346 65.3224 127.981 65.7487C127.617 66.175 127.434 66.7939 127.434 67.6055C127.434 68.3761 127.569 68.9602 127.84 69.3578C128.111 69.7554 128.559 69.9543 129.187 69.9543C129.523 69.9543 129.859 69.8907 130.195 69.7636C130.535 69.6325 130.847 69.4583 131.129 69.241Z" fill="white"></path><path d="M135.802 63.111H134.499V61.912H135.802V63.111ZM135.729 71.1286H134.573V64.2607H135.729V71.1286Z" fill="white"></path><path d="M141.582 71.0671C141.365 71.1245 141.127 71.1717 140.869 71.2085C140.615 71.2454 140.387 71.2639 140.186 71.2639C139.485 71.2639 138.952 71.0753 138.588 70.6982C138.223 70.3211 138.04 69.7165 138.04 68.8844V65.2322H137.26V64.2607H138.04V62.287H139.196V64.2607H141.582V65.2322H139.196V68.3618C139.196 68.7225 139.204 69.0053 139.221 69.2103C139.237 69.4111 139.295 69.5997 139.393 69.7759C139.483 69.9399 139.606 70.0608 139.762 70.1387C139.922 70.2125 140.164 70.2494 140.488 70.2494C140.676 70.2494 140.873 70.2227 141.078 70.1694C141.283 70.1121 141.43 70.0649 141.52 70.028H141.582V71.0671Z" fill="white"></path><path d="M148.321 71.1286H147.171V70.3969C147.068 70.4666 146.929 70.565 146.753 70.6921C146.581 70.815 146.413 70.9134 146.249 70.9872C146.056 71.0815 145.835 71.1594 145.585 71.2208C145.335 71.2864 145.042 71.3192 144.705 71.3192C144.086 71.3192 143.562 71.1143 143.131 70.7044C142.701 70.2945 142.486 69.7718 142.486 69.1365C142.486 68.6159 142.596 68.1958 142.818 67.8761C143.043 67.5522 143.363 67.2981 143.777 67.1136C144.195 66.9292 144.697 66.8042 145.283 66.7386C145.869 66.673 146.499 66.6238 147.171 66.591V66.4127C147.171 66.1504 147.124 65.9331 147.03 65.761C146.939 65.5888 146.808 65.4535 146.636 65.3552C146.472 65.2609 146.275 65.1973 146.046 65.1646C145.816 65.1318 145.576 65.1154 145.326 65.1154C145.023 65.1154 144.685 65.1564 144.312 65.2383C143.939 65.3162 143.554 65.431 143.156 65.5827H143.094V64.4083C143.32 64.3468 143.646 64.2792 144.072 64.2054C144.498 64.1316 144.919 64.0947 145.333 64.0947C145.816 64.0947 146.236 64.1357 146.593 64.2177C146.954 64.2956 147.265 64.4308 147.528 64.6235C147.786 64.812 147.983 65.0559 148.118 65.3552C148.253 65.6544 148.321 66.0253 148.321 66.468V71.1286ZM147.171 69.4378V67.5256C146.818 67.5461 146.402 67.5768 145.923 67.6178C145.447 67.6588 145.07 67.7182 144.791 67.7961C144.459 67.8904 144.191 68.038 143.986 68.2388C143.781 68.4356 143.679 68.7082 143.679 69.0566C143.679 69.4501 143.797 69.7473 144.035 69.9481C144.273 70.1449 144.636 70.2432 145.123 70.2432C145.529 70.2432 145.9 70.1653 146.236 70.0096C146.572 69.8497 146.884 69.6591 147.171 69.4378Z" fill="white"></path><path d="M151.715 71.1286H150.559V61.5615H151.715V71.1286Z" fill="white"></path><path d="M161.749 71.1286H158.134V70.194H159.333V62.908H158.134V61.9735H161.749V62.908H160.55V70.194H161.749V71.1286Z" fill="white"></path><path d="M169.472 71.1286H168.316V67.2182C168.316 66.9025 168.297 66.6074 168.26 66.3328C168.223 66.054 168.156 65.8368 168.057 65.681C167.955 65.5089 167.807 65.3818 167.615 65.2998C167.422 65.2137 167.172 65.1707 166.865 65.1707C166.549 65.1707 166.219 65.2486 165.875 65.4043C165.53 65.5601 165.2 65.7589 164.885 66.0008V71.1286H163.729V64.2607H164.885V65.0231C165.246 64.7239 165.619 64.4903 166.004 64.3222C166.389 64.1541 166.785 64.0701 167.191 64.0701C167.932 64.0701 168.498 64.2935 168.887 64.7403C169.277 65.1871 169.472 65.8306 169.472 66.6709V71.1286Z" fill="white"></path><path d="M177.44 71.1286H176.284V67.2182C176.284 66.9025 176.266 66.6074 176.229 66.3328C176.192 66.054 176.124 65.8368 176.026 65.681C175.923 65.5089 175.776 65.3818 175.583 65.2998C175.391 65.2137 175.141 65.1707 174.833 65.1707C174.518 65.1707 174.188 65.2486 173.843 65.4043C173.499 65.5601 173.169 65.7589 172.853 66.0008V71.1286H171.697V64.2607H172.853V65.0231C173.214 64.7239 173.587 64.4903 173.972 64.3222C174.358 64.1541 174.753 64.0701 175.159 64.0701C175.901 64.0701 176.467 64.2935 176.856 64.7403C177.245 65.1871 177.44 65.8306 177.44 66.6709V71.1286Z" fill="white"></path><path d="M185.519 67.6977C185.519 68.8168 185.232 69.7001 184.658 70.3478C184.085 70.9954 183.316 71.3192 182.353 71.3192C181.381 71.3192 180.609 70.9954 180.035 70.3478C179.465 69.7001 179.18 68.8168 179.18 67.6977C179.18 66.5787 179.465 65.6954 180.035 65.0477C180.609 64.396 181.381 64.0701 182.353 64.0701C183.316 64.0701 184.085 64.396 184.658 65.0477C185.232 65.6954 185.519 66.5787 185.519 67.6977ZM184.326 67.6977C184.326 66.8083 184.152 66.1483 183.804 65.7179C183.455 65.2834 182.972 65.0662 182.353 65.0662C181.726 65.0662 181.238 65.2834 180.889 65.7179C180.545 66.1483 180.373 66.8083 180.373 67.6977C180.373 68.5585 180.547 69.2123 180.896 69.6591C181.244 70.1018 181.73 70.3232 182.353 70.3232C182.968 70.3232 183.449 70.1039 183.798 69.6653C184.15 69.2226 184.326 68.5667 184.326 67.6977Z" fill="white"></path><path d="M193.156 64.2607L190.377 71.1286H189.215L186.454 64.2607H187.708L189.836 69.7268L191.944 64.2607H193.156Z" fill="white"></path><path d="M199.759 71.1286H198.609V70.3969C198.507 70.4666 198.368 70.565 198.191 70.6921C198.019 70.815 197.851 70.9134 197.687 70.9872C197.495 71.0815 197.273 71.1594 197.023 71.2208C196.773 71.2864 196.48 71.3192 196.144 71.3192C195.525 71.3192 195 71.1143 194.57 70.7044C194.139 70.2945 193.924 69.7718 193.924 69.1365C193.924 68.6159 194.035 68.1958 194.256 67.8761C194.482 67.5522 194.801 67.2981 195.215 67.1136C195.634 66.9292 196.136 66.8042 196.722 66.7386C197.308 66.673 197.937 66.6238 198.609 66.591V66.4127C198.609 66.1504 198.562 65.9331 198.468 65.761C198.378 65.5888 198.247 65.4535 198.075 65.3552C197.911 65.2609 197.714 65.1973 197.484 65.1646C197.255 65.1318 197.015 65.1154 196.765 65.1154C196.462 65.1154 196.123 65.1564 195.75 65.2383C195.377 65.3162 194.992 65.431 194.594 65.5827H194.533V64.4083C194.758 64.3468 195.084 64.2792 195.511 64.2054C195.937 64.1316 196.357 64.0947 196.771 64.0947C197.255 64.0947 197.675 64.1357 198.031 64.2177C198.392 64.2956 198.704 64.4308 198.966 64.6235C199.224 64.812 199.421 65.0559 199.556 65.3552C199.692 65.6544 199.759 66.0253 199.759 66.468V71.1286ZM198.609 69.4378V67.5256C198.257 67.5461 197.841 67.5768 197.361 67.6178C196.886 67.6588 196.509 67.7182 196.23 67.7961C195.898 67.8904 195.629 68.038 195.425 68.2388C195.22 68.4356 195.117 68.7082 195.117 69.0566C195.117 69.4501 195.236 69.7473 195.474 69.9481C195.711 70.1449 196.074 70.2432 196.562 70.2432C196.968 70.2432 197.339 70.1653 197.675 70.0096C198.011 69.8497 198.323 69.6591 198.609 69.4378Z" fill="white"></path><path d="M205.551 71.0671C205.334 71.1245 205.096 71.1717 204.838 71.2085C204.584 71.2454 204.356 71.2639 204.155 71.2639C203.454 71.2639 202.922 71.0753 202.557 70.6982C202.192 70.3211 202.01 69.7165 202.01 68.8844V65.2322H201.229V64.2607H202.01V62.287H203.165V64.2607H205.551V65.2322H203.165V68.3618C203.165 68.7225 203.174 69.0053 203.19 69.2103C203.206 69.4111 203.264 69.5997 203.362 69.7759C203.452 69.9399 203.575 70.0608 203.731 70.1387C203.891 70.2125 204.133 70.2494 204.457 70.2494C204.645 70.2494 204.842 70.2227 205.047 70.1694C205.252 70.1121 205.399 70.0649 205.49 70.028H205.551V71.0671Z" fill="white"></path><path d="M208.195 63.111H206.891V61.912H208.195V63.111ZM208.121 71.1286H206.965V64.2607H208.121V71.1286Z" fill="white"></path><path d="M216.262 67.6977C216.262 68.8168 215.975 69.7001 215.401 70.3478C214.827 70.9954 214.059 71.3192 213.095 71.3192C212.124 71.3192 211.351 70.9954 210.777 70.3478C210.208 69.7001 209.923 68.8168 209.923 67.6977C209.923 66.5787 210.208 65.6954 210.777 65.0477C211.351 64.396 212.124 64.0701 213.095 64.0701C214.059 64.0701 214.827 64.396 215.401 65.0477C215.975 65.6954 216.262 66.5787 216.262 67.6977ZM215.069 67.6977C215.069 66.8083 214.895 66.1483 214.546 65.7179C214.198 65.2834 213.714 65.0662 213.095 65.0662C212.468 65.0662 211.98 65.2834 211.632 65.7179C211.288 66.1483 211.116 66.8083 211.116 67.6977C211.116 68.5585 211.29 69.2123 211.638 69.6591C211.987 70.1018 212.472 70.3232 213.095 70.3232C213.71 70.3232 214.192 70.1039 214.54 69.6653C214.893 69.2226 215.069 68.5667 215.069 67.6977Z" fill="white"></path><path d="M223.8 71.1286H222.644V67.2182C222.644 66.9025 222.626 66.6074 222.589 66.3328C222.552 66.054 222.484 65.8368 222.386 65.681C222.283 65.5089 222.136 65.3818 221.943 65.2998C221.75 65.2137 221.5 65.1707 221.193 65.1707C220.877 65.1707 220.547 65.2486 220.203 65.4043C219.859 65.5601 219.529 65.7589 219.213 66.0008V71.1286H218.057V64.2607H219.213V65.0231C219.574 64.7239 219.947 64.4903 220.332 64.3222C220.717 64.1541 221.113 64.0701 221.519 64.0701C222.261 64.0701 222.826 64.2935 223.216 64.7403C223.605 65.1871 223.8 65.8306 223.8 66.6709V71.1286Z" fill="white"></path><defs><linearGradient id="paint0_linear_7108_5266" x1="43.3267" y1="0" x2="43.3267" y2="50.4285" gradientUnits="userSpaceOnUse"><stop stop-color="#07D2B3"></stop><stop offset="1" stop-color="#0D54EF"></stop></linearGradient><linearGradient id="paint1_linear_7108_5266" x1="62.1158" y1="0.00683594" x2="62.1158" y2="12.6229" gradientUnits="userSpaceOnUse"><stop stop-color="#07D2B3"></stop><stop offset="1" stop-color="#0D54EF"></stop></linearGradient><linearGradient id="paint2_linear_7108_5266" x1="18.5625" y1="50.4257" x2="31.1765" y2="38.0399" gradientUnits="userSpaceOnUse"><stop stop-color="#07D2B3"></stop><stop offset="1" stop-color="#0D54EF"></stop></linearGradient></defs></svg>